<svg width="135" height="40" viewBox="0 0 135 40" fill="none" xmlns="http://www.w3.org/2000/svg">
<g clip-path="url(#clip0_53_50)">
<path d="M130 0H5C2.23858 0 0 2.23858 0 5V35C0 37.7614 2.23858 40 5 40H130C132.761 40 135 37.7614 135 35V5C135 2.23858 132.761 0 130 0Z" fill="black"/>
<path d="M130 0.8C131.114 0.8 132.182 1.2425 132.97 2.03015C133.758 2.8178 134.2 3.88609 134.2 5V35C134.2 36.1139 133.758 37.1822 132.97 37.9698C132.182 38.7575 131.114 39.2 130 39.2H5C3.88609 39.2 2.8178 38.7575 2.03015 37.9698C1.2425 37.1822 0.8 36.1139 0.8 35V5C0.8 3.88609 1.2425 2.8178 2.03015 2.03015C2.8178 1.2425 3.88609 0.8 5 0.8H130ZM130 0H5C3.67392 0 2.40215 0.526784 1.46447 1.46447C0.526784 2.40215 0 3.67392 0 5V35C0 36.3261 0.526784 37.5979 1.46447 38.5355C2.40215 39.4732 3.67392 40 5 40H130C131.326 40 132.598 39.4732 133.536 38.5355C134.473 37.5979 135 36.3261 135 35V5C135 3.67392 134.473 2.40215 133.536 1.46447C132.598 0.526784 131.326 0 130 0Z" fill="#A6A6A6"/>
<path d="M68.1401 21.75C67.3004 21.7539 66.4807 22.0066 65.7844 22.476C65.0881 22.9453 64.5465 23.6105 64.2279 24.3874C63.9093 25.1643 63.828 26.0182 63.9942 26.8413C64.1605 27.6644 64.5668 28.4198 65.162 29.0122C65.7571 29.6046 66.5144 30.0074 67.3383 30.1697C68.1622 30.3321 69.0157 30.2468 69.7911 29.9245C70.5665 29.6023 71.2291 29.0575 71.6952 28.3591C72.1613 27.6606 72.4101 26.8397 72.4101 26C72.4183 25.4379 72.3132 24.88 72.1013 24.3593C71.8893 23.8387 71.5748 23.366 71.1764 22.9695C70.7779 22.573 70.3038 22.2606 69.7822 22.0511C69.2606 21.8416 68.7021 21.7392 68.1401 21.75V21.75ZM68.1401 28.58C67.6237 28.6161 67.1083 28.496 66.6611 28.2354C66.2138 27.9747 65.8553 27.5855 65.6321 27.1184C65.409 26.6513 65.3315 26.1279 65.4098 25.6161C65.4881 25.1044 65.7185 24.6281 66.0711 24.249C66.4237 23.87 66.8821 23.6058 67.3869 23.4908C67.8916 23.3758 68.4193 23.4152 68.9013 23.6041C69.3833 23.7929 69.7973 24.1224 70.0896 24.5497C70.3819 24.977 70.5388 25.4823 70.5401 26C70.5562 26.328 70.5065 26.6559 70.3938 26.9644C70.2812 27.2729 70.1079 27.5557 69.8842 27.7962C69.6606 28.0366 69.391 28.2299 69.0914 28.3645C68.7919 28.4991 68.4684 28.5724 68.1401 28.58ZM58.8301 21.75C57.99 21.752 57.1692 22.0029 56.4717 22.4711C55.7741 22.9393 55.2309 23.6037 54.9108 24.3805C54.5906 25.1573 54.5079 26.0115 54.673 26.8352C54.8381 27.659 55.2437 28.4153 55.8384 29.0087C56.4332 29.6021 57.1905 30.0059 58.0146 30.1691C58.8388 30.3322 59.6928 30.2475 60.4688 29.9255C61.2448 29.6036 61.908 29.0588 62.3745 28.3601C62.8411 27.6614 63.0901 26.8401 63.0901 26C63.0982 25.4379 62.9932 24.88 62.7813 24.3593C62.5693 23.8387 62.2548 23.366 61.8564 22.9695C61.4579 22.573 60.9838 22.2606 60.4622 22.0511C59.9406 21.8416 59.3821 21.7392 58.8201 21.75H58.8301ZM58.8301 28.58C58.3134 28.6181 57.7972 28.4999 57.3487 28.2406C56.9002 27.9812 56.5402 27.5929 56.3155 27.1261C56.0907 26.6593 56.0118 26.1356 56.0888 25.6233C56.1658 25.111 56.3953 24.6338 56.7474 24.2537C57.0995 23.8736 57.5578 23.6084 58.0628 23.4924C58.5677 23.3765 59.0959 23.4153 59.5785 23.6037C60.0611 23.7921 60.4757 24.1215 60.7685 24.5489C61.0613 24.9763 61.2187 25.4819 61.2201 26C61.2362 26.328 61.1865 26.6559 61.0738 26.9644C60.9612 27.2729 60.7879 27.5557 60.5642 27.7962C60.3406 28.0366 60.071 28.2299 59.7714 28.3645C59.4719 28.4991 59.1484 28.5724 58.8201 28.58H58.8301ZM47.7401 23.06V24.86H52.0601C51.9924 25.7078 51.6399 26.5078 51.0601 27.13C50.6279 27.5702 50.1083 27.9151 49.5348 28.1425C48.9613 28.3698 48.3465 28.4746 47.7301 28.45C46.4571 28.45 45.2362 27.9443 44.336 27.0441C43.4358 26.1439 42.9301 24.923 42.9301 23.65C42.9301 22.377 43.4358 21.1561 44.336 20.2559C45.2362 19.3557 46.4571 18.85 47.7301 18.85C48.9479 18.8301 50.1239 19.294 51.0001 20.14L52.2701 18.87C51.6786 18.271 50.9728 17.7969 50.1947 17.4757C49.4166 17.1544 48.5819 16.9927 47.7401 17C46.8511 16.9654 45.9643 17.1106 45.1327 17.427C44.3012 17.7433 43.5421 18.2243 42.9009 18.841C42.2596 19.4577 41.7495 20.1976 41.4011 21.0162C41.0527 21.8348 40.873 22.7153 40.873 23.605C40.873 24.4947 41.0527 25.3752 41.4011 26.1938C41.7495 27.0124 42.2596 27.7522 42.9009 28.369C43.5421 28.9857 44.3012 29.4667 45.1327 29.783C45.9643 30.0994 46.8511 30.2446 47.7401 30.21C48.5961 30.2487 49.4504 30.1036 50.2455 29.7845C51.0407 29.4654 51.7583 28.9796 52.3501 28.36C53.3978 27.2089 53.9571 25.6958 53.9101 24.14C53.9133 23.761 53.8798 23.3825 53.8101 23.01L47.7401 23.06ZM93.0501 24.46C92.7893 23.6927 92.3016 23.0228 91.6516 22.5388C91.0016 22.0549 90.2199 21.7798 89.4101 21.75C88.8631 21.7489 88.3217 21.8601 87.8193 22.0765C87.317 22.293 86.8644 22.6102 86.4895 23.0085C86.1146 23.4069 85.8254 23.8778 85.6397 24.3924C85.4541 24.9069 85.3759 25.4541 85.4101 26C85.3979 26.5589 85.4986 27.1145 85.706 27.6337C85.9133 28.1528 86.2232 28.6249 86.6171 29.0216C87.0111 29.4183 87.4809 29.7315 87.9985 29.9426C88.5162 30.1536 89.0711 30.2582 89.6301 30.25C90.3296 30.2538 91.0191 30.084 91.6369 29.7559C92.2547 29.4278 92.7815 28.9516 93.1701 28.37L91.7201 27.37C91.5037 27.7308 91.1973 28.0292 90.8309 28.236C90.4646 28.4429 90.0508 28.5511 89.6301 28.55C89.1969 28.5665 88.7688 28.4523 88.4014 28.2222C88.034 27.9922 87.7444 27.6569 87.5701 27.26L93.2601 24.91L93.0501 24.46ZM87.2501 25.88C87.2298 25.5707 87.2715 25.2604 87.3726 24.9674C87.4737 24.6744 87.6323 24.4045 87.8391 24.1736C88.0458 23.9426 88.2966 23.7553 88.5766 23.6224C88.8567 23.4896 89.1604 23.414 89.4701 23.4C89.7927 23.3787 90.1144 23.4527 90.3953 23.6127C90.6762 23.7727 90.9039 24.0117 91.0501 24.3L87.2501 25.88ZM82.6301 30H84.5001V17.5H82.6301V30ZM79.5701 22.7H79.5001C79.2183 22.3849 78.873 22.1329 78.487 21.9606C78.101 21.7882 77.6829 21.6994 77.2601 21.7C76.1673 21.753 75.1367 22.2244 74.3821 23.0166C73.6274 23.8087 73.2064 24.8609 73.2064 25.955C73.2064 27.0491 73.6274 28.1013 74.3821 28.8934C75.1367 29.6856 76.1673 30.157 77.2601 30.21C77.6839 30.2171 78.104 30.1313 78.491 29.9585C78.8781 29.7857 79.2225 29.5302 79.5001 29.21H79.5601V29.82C79.5601 31.45 78.6901 32.32 77.2901 32.32C76.8238 32.3091 76.3713 32.1597 75.9902 31.8908C75.6091 31.6219 75.3167 31.2456 75.1501 30.81L73.5201 31.49C73.8269 32.2364 74.3497 32.874 75.0214 33.3212C75.6931 33.7685 76.4831 34.0048 77.2901 34C79.4801 34 81.2901 32.71 81.2901 29.57V22H79.5701V22.7ZM77.4301 28.58C76.7851 28.5231 76.1847 28.2267 75.7474 27.7492C75.31 27.2716 75.0675 26.6475 75.0675 26C75.0675 25.3524 75.31 24.7284 75.7474 24.2508C76.1847 23.7733 76.7851 23.4768 77.4301 23.42C77.7499 23.4364 78.0632 23.5167 78.3516 23.656C78.6399 23.7954 78.8974 23.9911 79.1089 24.2315C79.3205 24.4719 79.4818 24.7523 79.5833 25.056C79.6848 25.3597 79.7245 25.6807 79.7001 26C79.7274 26.3207 79.6893 26.6436 79.5883 26.9491C79.4872 27.2547 79.3252 27.5366 79.1121 27.7778C78.8989 28.019 78.6391 28.2144 78.3483 28.3523C78.0575 28.4902 77.7417 28.5676 77.4201 28.58H77.4301ZM101.81 17.5H97.3401V30H99.2101V25.26H101.82C102.353 25.2983 102.888 25.2264 103.392 25.0487C103.896 24.8711 104.358 24.5915 104.749 24.2275C105.14 23.8635 105.452 23.4227 105.665 22.9328C105.879 22.4429 105.989 21.9143 105.989 21.38C105.989 20.8457 105.879 20.3171 105.665 19.8272C105.452 19.3373 105.14 18.8965 104.749 18.5325C104.358 18.1685 103.896 17.8889 103.392 17.7113C102.888 17.5336 102.353 17.4617 101.82 17.5H101.81ZM101.81 23.5H99.2001V19.24H101.85C102.419 19.24 102.965 19.466 103.367 19.8683C103.769 20.2705 103.995 20.8161 103.995 21.385C103.995 21.9539 103.769 22.4995 103.367 22.9017C102.965 23.304 102.419 23.53 101.85 23.53L101.81 23.5ZM113.34 21.7C112.659 21.6593 111.981 21.8184 111.39 22.1577C110.798 22.497 110.319 23.0018 110.01 23.61L111.67 24.3C111.834 23.9983 112.082 23.7508 112.383 23.5874C112.685 23.4241 113.028 23.352 113.37 23.38C113.607 23.3523 113.848 23.3721 114.078 23.4383C114.307 23.5045 114.521 23.6158 114.708 23.7657C114.894 23.9156 115.048 24.101 115.162 24.3112C115.276 24.5214 115.346 24.7522 115.37 24.99V25.12C114.769 24.802 114.1 24.6371 113.42 24.64C111.63 24.64 109.82 25.64 109.82 27.45C109.838 27.8359 109.933 28.2144 110.099 28.563C110.266 28.9117 110.5 29.2234 110.789 29.4798C111.078 29.7362 111.416 29.932 111.782 30.0557C112.148 30.1794 112.535 30.2285 112.92 30.2C113.391 30.2338 113.862 30.1402 114.285 29.9291C114.707 29.718 115.065 29.397 115.32 29H115.38V30H117.18V25.19C117.18 23 115.52 21.73 113.39 21.73L113.34 21.7ZM113.11 28.55C112.5 28.55 111.65 28.24 111.65 27.49C111.65 26.49 112.71 26.16 113.65 26.16C114.244 26.1453 114.831 26.2904 115.35 26.58C115.288 27.1214 115.031 27.622 114.629 27.9895C114.227 28.357 113.705 28.5667 113.16 28.58L113.11 28.55ZM123.74 22L121.6 27.42H121.54L119.32 22H117.32L120.65 29.58L118.75 33.79H120.7L125.82 22H123.74ZM106.93 30H108.8V17.5H106.93V30Z" fill="white"/>
<path d="M10.4399 7.53997C10.114 7.93108 9.94945 8.43177 9.9799 8.93997V31.06C9.94945 31.5682 10.114 32.0689 10.4399 32.46L10.5099 32.53L22.8999 20.15V19.86L10.5099 7.46997L10.4399 7.53997Z" fill="url(#paint0_linear_53_50)"/>
<path d="M26.9999 24.28L22.8999 20.15V19.86L26.9999 15.72L27.0899 15.77L31.9999 18.56C33.3999 19.35 33.3999 20.65 31.9999 21.45L27.1099 24.23L26.9999 24.28Z" fill="url(#paint1_linear_53_50)"/>
<path d="M27.1199 24.22L22.8999 20L10.4399 32.46C10.7253 32.7109 11.0893 32.8541 11.4691 32.8651C11.8489 32.876 12.2206 32.754 12.5199 32.52L27.1299 24.22" fill="url(#paint2_linear_53_50)"/>
<path d="M27.1199 15.78L12.5099 7.48005C12.2106 7.24606 11.8389 7.124 11.4591 7.13496C11.0793 7.14591 10.7153 7.2892 10.4299 7.54005L22.8999 20L27.1199 15.78Z" fill="url(#paint3_linear_53_50)"/>
<path opacity="0.2" d="M26.9999 24.13L12.5099 32.38C12.2212 32.5959 11.8704 32.7125 11.5099 32.7125C11.1495 32.7125 10.7987 32.5959 10.5099 32.38L10.4399 32.45L10.5099 32.52C10.798 32.7374 11.1491 32.855 11.5099 32.855C11.8708 32.855 12.2219 32.7374 12.5099 32.52L27.1199 24.22L26.9999 24.13Z" fill="black"/>
<path opacity="0.12" d="M10.4399 32.32C10.114 31.9289 9.94945 31.4282 9.9799 30.92V31.07C9.94945 31.5782 10.114 32.0789 10.4399 32.47L10.5099 32.4L10.4399 32.32ZM31.9999 21.3L26.9999 24.13L27.0899 24.22L31.9999 21.44C32.2785 21.3091 32.5177 21.1071 32.6932 20.8543C32.8688 20.6014 32.9746 20.3068 32.9999 20C32.9437 20.2787 32.8243 20.5408 32.6509 20.7662C32.4776 20.9915 32.2549 21.1742 31.9999 21.3Z" fill="black"/>
<path opacity="0.25" d="M12.51 7.62006L32 18.7001C32.2549 18.8259 32.4776 19.0085 32.651 19.2339C32.8244 19.4592 32.9437 19.7214 33 20.0001C32.9747 19.6933 32.8689 19.3986 32.6933 19.1458C32.5177 18.893 32.2786 18.6909 32 18.5601L12.51 7.48006C11.11 6.69006 9.96997 7.35006 9.96997 8.95006V9.10006C9.99997 7.49006 11.12 6.83006 12.51 7.62006V7.62006Z" fill="white"/>
<path d="M41.28 13V6.99997H43.11C43.5154 6.98167 43.9202 7.04579 44.3001 7.18845C44.68 7.33112 45.0269 7.54936 45.32 7.82997C45.6003 8.11548 45.8194 8.4552 45.9639 8.82833C46.1083 9.20146 46.175 9.60014 46.16 9.99997C46.1764 10.3991 46.1112 10.7973 45.9685 11.1704C45.8258 11.5435 45.6085 11.8836 45.33 12.17C45.0369 12.4506 44.69 12.6688 44.3101 12.8115C43.9302 12.9542 43.5254 13.0183 43.12 13H41.28ZM42.05 12.26H43.11C43.4112 12.2757 43.7125 12.2306 43.996 12.1276C44.2794 12.0245 44.5393 11.8655 44.76 11.66C44.9695 11.4395 45.1317 11.1785 45.2366 10.893C45.3415 10.6076 45.3869 10.3036 45.37 9.99997C45.3957 9.69757 45.3552 9.39321 45.2513 9.10804C45.1475 8.82288 44.9828 8.56375 44.7686 8.34868C44.5545 8.1336 44.2961 7.96774 44.0114 7.86262C43.7267 7.7575 43.4225 7.71565 43.12 7.73997H42.05V12.26ZM47.24 13V6.99997H48V13H47.24ZM51.08 13.13C50.6193 13.1217 50.1723 12.9716 49.8 12.7C49.3859 12.417 49.0932 11.9886 48.98 11.5L49.68 11.22C49.7602 11.5427 49.9384 11.8326 50.19 12.05C50.4304 12.2695 50.7445 12.3908 51.07 12.39C51.3775 12.4001 51.6797 12.3088 51.93 12.13C52.0455 12.0497 52.139 11.9417 52.2019 11.8159C52.2648 11.6901 52.2951 11.5505 52.29 11.41C52.2964 11.2621 52.267 11.1149 52.2043 10.9809C52.1416 10.8469 52.0475 10.7299 51.93 10.64C51.5849 10.4073 51.2028 10.2348 50.8 10.13C50.3519 10.0098 49.9377 9.7873 49.59 9.47997C49.457 9.35016 49.3519 9.19444 49.2814 9.02245C49.2109 8.85045 49.1764 8.66583 49.18 8.47997C49.1804 8.26773 49.226 8.05801 49.314 7.86486C49.402 7.6717 49.5302 7.49957 49.69 7.35997C50.0469 7.03334 50.5164 6.85771 51 6.86997C51.4448 6.84981 51.8829 6.98406 52.24 7.24997C52.5253 7.45817 52.7413 7.74737 52.86 8.07997L52.16 8.36997C52.0988 8.15722 51.9686 7.97081 51.79 7.83997C51.5672 7.67965 51.2996 7.5934 51.025 7.5934C50.7505 7.5934 50.4829 7.67965 50.26 7.83997C50.1623 7.91075 50.0831 8.00407 50.0291 8.11201C49.9751 8.21995 49.948 8.33931 49.95 8.45997C49.9496 8.57119 49.9757 8.6809 50.0261 8.78003C50.0766 8.87915 50.1499 8.96483 50.24 9.02997C50.4979 9.21408 50.7854 9.35275 51.09 9.43997C51.3416 9.51975 51.5887 9.61322 51.83 9.71997C52.0419 9.81889 52.243 9.93954 52.43 10.08C52.6279 10.2209 52.7863 10.4103 52.89 10.63C52.9998 10.8716 53.0544 11.1346 53.05 11.4C53.055 11.6708 52.9931 11.9387 52.87 12.18C52.7578 12.3973 52.5927 12.583 52.39 12.72C52.1935 12.8549 51.9777 12.9594 51.75 13.03C51.5325 13.0948 51.307 13.1285 51.08 13.13V13.13ZM55 13H54.23V6.99997H56.23C56.7193 6.99366 57.1921 7.17635 57.55 7.50997C57.727 7.67293 57.8683 7.87081 57.9649 8.09113C58.0615 8.31144 58.1114 8.5494 58.1114 8.78997C58.1114 9.03054 58.0615 9.2685 57.9649 9.48881C57.8683 9.70913 57.727 9.90701 57.55 10.07C57.1927 10.4045 56.7195 10.5873 56.23 10.58H55V13ZM55 9.82997H56.29C56.4363 9.83539 56.5819 9.80864 56.7167 9.75163C56.8515 9.69461 56.9721 9.6087 57.07 9.49997C57.1668 9.40669 57.2438 9.29485 57.2964 9.17114C57.349 9.04743 57.3761 8.91439 57.3761 8.77997C57.3761 8.64555 57.349 8.51251 57.2964 8.3888C57.2438 8.26509 57.1668 8.15325 57.07 8.05997C56.9721 7.95124 56.8515 7.86534 56.7167 7.80832C56.5819 7.7513 56.4363 7.72455 56.29 7.72997H55V9.82997ZM64 12.22C63.4154 12.8013 62.6245 13.1276 61.8 13.1276C60.9756 13.1276 60.1846 12.8013 59.6 12.22C59.0318 11.6185 58.7152 10.8224 58.7152 9.99497C58.7152 9.16753 59.0318 8.37145 59.6 7.76997C59.8882 7.47972 60.2309 7.24935 60.6085 7.09214C60.9861 6.93494 61.391 6.854 61.8 6.854C62.209 6.854 62.614 6.93494 62.9916 7.09214C63.3691 7.24935 63.7119 7.47972 64 7.76997C64.5705 8.3703 64.8886 9.16682 64.8886 9.99497C64.8886 10.8231 64.5705 11.6196 64 12.22ZM60.17 11.72C60.603 12.1511 61.1891 12.3931 61.8 12.3931C62.411 12.3931 62.9971 12.1511 63.43 11.72C63.8573 11.249 64.0939 10.6359 64.0939 9.99997C64.0939 9.36408 63.8573 8.75095 63.43 8.27997C62.9971 7.84885 62.411 7.6068 61.8 7.6068C61.1891 7.6068 60.603 7.84885 60.17 8.27997C59.7428 8.75095 59.5061 9.36408 59.5061 9.99997C59.5061 10.6359 59.7428 11.249 60.17 11.72V11.72ZM66 13V6.99997H66.94L69.86 11.67V6.99997H70.63V13H69.83L66.78 8.10997V13H66ZM72 13V6.99997H72.77V13H72ZM74.1 13V6.99997H76.27C76.7206 6.99146 77.1572 7.1561 77.49 7.45997C77.6553 7.60593 77.7866 7.78631 77.8747 7.98844C77.9628 8.19057 78.0056 8.40954 78 8.62997C78.0047 8.89653 77.928 9.15818 77.78 9.37997C77.6332 9.5954 77.4288 9.7652 77.19 9.86997C77.4801 9.96599 77.7345 10.1472 77.92 10.39C78.1123 10.635 78.2147 10.9386 78.21 11.25C78.2151 11.4805 78.1694 11.7093 78.0761 11.9202C77.9827 12.131 77.8441 12.3187 77.67 12.47C77.3218 12.7912 76.8637 12.9665 76.39 12.96L74.1 13ZM74.87 9.56997H76.27C76.4008 9.57543 76.5311 9.55231 76.652 9.50223C76.7729 9.45214 76.8815 9.37629 76.97 9.27997C77.0579 9.199 77.1286 9.10117 77.1778 8.99231C77.227 8.88345 77.2539 8.76579 77.2567 8.64634C77.2595 8.52689 77.2382 8.4081 77.1941 8.29705C77.15 8.186 77.084 8.08497 77 7.99997C76.9165 7.90545 76.8131 7.83046 76.6973 7.78035C76.5815 7.73023 76.4561 7.7062 76.33 7.70997H74.87V9.56997ZM74.87 12.26H76.42C76.5555 12.2645 76.6902 12.2391 76.8147 12.1855C76.9392 12.1319 77.0503 12.0515 77.14 11.95C77.3163 11.7671 77.4165 11.524 77.42 11.27C77.42 11.0048 77.3147 10.7504 77.1271 10.5629C76.9396 10.3753 76.6852 10.27 76.42 10.27H74.87V12.26ZM79.24 13V6.99997H80V12.26H82.6V13H79.24ZM87.09 7.73997H84.35V9.63997H86.81V10.36H84.35V12.26H87.08V13H83.58V6.99997H87.08L87.09 7.73997ZM93.81 7.73997H91.08V9.63997H93.54V10.36H91.08V12.26H93.81V13H90.31V6.99997H93.81V7.73997ZM95 13V6.99997H96L98.92 11.67V6.99997H99.69V13H98.89L95.84 8.10997V13H95Z" fill="white" stroke="white" stroke-width="0.2" stroke-miterlimit="10"/>
</g>
<defs>
<linearGradient id="paint0_linear_53_50" x1="21.7999" y1="8.70997" x2="5.0199" y2="25.49" gradientUnits="userSpaceOnUse">
<stop stop-color="#00A0FF"/>
<stop offset="0.01" stop-color="#00A1FF"/>
<stop offset="0.26" stop-color="#00BEFF"/>
<stop offset="0.51" stop-color="#00D2FF"/>
<stop offset="0.76" stop-color="#00DFFF"/>
<stop offset="1" stop-color="#00E3FF"/>
</linearGradient>
<linearGradient id="paint1_linear_53_50" x1="33.8299" y1="20" x2="9.6399" y2="20" gradientUnits="userSpaceOnUse">
<stop stop-color="#FFE000"/>
<stop offset="0.41" stop-color="#FFBD00"/>
<stop offset="0.78" stop-color="#FFA500"/>
<stop offset="1" stop-color="#FF9C00"/>
</linearGradient>
<linearGradient id="paint2_linear_53_50" x1="24.8299" y1="22.3" x2="2.06994" y2="45.05" gradientUnits="userSpaceOnUse">
<stop stop-color="#FF3A44"/>
<stop offset="1" stop-color="#C31162"/>
</linearGradient>
<linearGradient id="paint3_linear_53_50" x1="7.29993" y1="0.180048" x2="17.4599" y2="10.34" gradientUnits="userSpaceOnUse">
<stop stop-color="#32A071"/>
<stop offset="0.07" stop-color="#2DA771"/>
<stop offset="0.48" stop-color="#15CF74"/>
<stop offset="0.8" stop-color="#06E775"/>
<stop offset="1" stop-color="#00F076"/>
</linearGradient>
<clipPath id="clip0_53_50">
<rect width="135" height="40" fill="white"/>
</clipPath>
</defs>
</svg>
